{
	"asset":{
		"generator":"Khronos glTF Blender I/O v3.6.28",
		"version":"2.0"
	},
	"scene":0,
	"scenes":[
		{
			"name":"Scene",
			"nodes":[
				0
			]
		}
	],
	"nodes":[
		{
			"mesh":0,
			"name":"Cube.013",
			"rotation":[
				0,
				-0.70710688829422,
				0,
				0.7071066498756409
			],
			"scale":[
				0.3739081919193268,
				0.11954391747713089,
				0.11954391747713089
			],
			"translation":[
				0.021655142307281494,
				-0.06398528069257736,
				-0.005747335031628609
			]
		}
	],
	"materials":[
		{
			"doubleSided":true,
			"name":"Material",
			"normalTexture":{
				"index":0
			},
			"pbrMetallicRoughness":{
				"baseColorTexture":{
					"index":1
				},
				"metallicRoughnessTexture":{
					"index":2
				}
			}
		},
		{
			"doubleSided":true,
			"name":"Material.002",
			"pbrMetallicRoughness":{
				"baseColorFactor":[
					0.1878194659948349,
					0.1878194659948349,
					0.1878194659948349,
					1
				],
				"metallicFactor":0.8714286088943481,
				"roughnessFactor":0.4499550461769104
			}
		},
		{
			"doubleSided":true,
			"name":"Material.004",
			"pbrMetallicRoughness":{
				"baseColorFactor":[
					0.7156866192817688,
					0.7156866192817688,
					0.7156866192817688,
					1
				],
				"metallicFactor":0.9182389974594116,
				"roughnessFactor":0.31761008501052856
			}
		}
	],
	"meshes":[
		{
			"name":"Cube.025",
			"primitives":[
				{
					"attributes":{
						"POSITION":0,
						"NORMAL":1,
						"TEXCOORD_0":2
					},
					"indices":3,
					"material":0
				},
				{
					"attributes":{
						"POSITION":4,
						"NORMAL":5,
						"TEXCOORD_0":6
					},
					"indices":7,
					"material":1
				},
				{
					"attributes":{
						"POSITION":8,
						"NORMAL":9,
						"TEXCOORD_0":10
					},
					"indices":11,
					"material":2
				}
			]
		}
	],
	"textures":[
		{
			"sampler":0,
			"source":0
		},
		{
			"sampler":0,
			"source":1
		},
		{
			"sampler":0,
			"source":2
		}
	],
	"images":[
		{
			"bufferView":4,
			"mimeType":"image/png",
			"name":"V2_Main Body_Normal"
		},
		{
			"bufferView":5,
			"mimeType":"image/png",
			"name":"V2_Main Body_BaseColor"
		},
		{
			"bufferView":6,
			"mimeType":"image/png",
			"name":"V2_Main Body_Metallic-V2_Main Body_Roughness"
		}
	],
	"accessors":[
		{
			"bufferView":0,
			"componentType":5126,
			"count":22424,
			"max":[
				1.489157795906067,
				7.961755275726318,
				23.30156707763672
			],
			"min":[
				-1.4280755519866943,
				0.7945398688316345,
				0.8532564640045166
			],
			"type":"VEC3"
		},
		{
			"bufferView":1,
			"componentType":5126,
			"count":22424,
			"type":"VEC3"
		},
		{
			"bufferView":2,
			"componentType":5126,
			"count":22424,
			"type":"VEC2"
		},
		{
			"bufferView":3,
			"componentType":5123,
			"count":131952,
			"type":"SCALAR"
		},
		{
			"bufferView":7,
			"componentType":5126,
			"count":6423,
			"max":[
				1.3479371070861816,
				8.473977088928223,
				14.501384735107422
			],
			"min":[
				-1.2829866409301758,
				1.069960355758667,
				-1.341825008392334
			],
			"type":"VEC3"
		},
		{
			"bufferView":8,
			"componentType":5126,
			"count":6423,
			"type":"VEC3"
		},
		{
			"bufferView":9,
			"componentType":5126,
			"count":6423,
			"type":"VEC2"
		},
		{
			"bufferView":10,
			"componentType":5123,
			"count":20172,
			"type":"SCALAR"
		},
		{
			"bufferView":11,
			"componentType":5126,
			"count":4075,
			"max":[
				1.600663423538208,
				3.91229248046875,
				1.7958958148956299
			],
			"min":[
				-1.514488935470581,
				1.1239712238311768,
				-3.615079641342163
			],
			"type":"VEC3"
		},
		{
			"bufferView":12,
			"componentType":5126,
			"count":4075,
			"type":"VEC3"
		},
		{
			"bufferView":13,
			"componentType":5126,
			"count":4075,
			"type":"VEC2"
		},
		{
			"bufferView":14,
			"componentType":5123,
			"count":15120,
			"type":"SCALAR"
		}
	],
	"bufferViews":[
		{
			"buffer":0,
			"byteLength":269088,
			"byteOffset":0,
			"target":34962
		},
		{
			"buffer":0,
			"byteLength":269088,
			"byteOffset":269088,
			"target":34962
		},
		{
			"buffer":0,
			"byteLength":179392,
			"byteOffset":538176,
			"target":34962
		},
		{
			"buffer":0,
			"byteLength":263904,
			"byteOffset":717568,
			"target":34963
		},
		{
			"buffer":0,
			"byteLength":150655,
			"byteOffset":981472
		},
		{
			"buffer":0,
			"byteLength":518177,
			"byteOffset":1132128
		},
		{
			"buffer":0,
			"byteLength":267194,
			"byteOffset":1650308
		},
		{
			"buffer":0,
			"byteLength":77076,
			"byteOffset":1917504,
			"target":34962
		},
		{
			"buffer":0,
			"byteLength":77076,
			"byteOffset":1994580,
			"target":34962
		},
		{
			"buffer":0,
			"byteLength":51384,
			"byteOffset":2071656,
			"target":34962
		},
		{
			"buffer":0,
			"byteLength":40344,
			"byteOffset":2123040,
			"target":34963
		},
		{
			"buffer":0,
			"byteLength":48900,
			"byteOffset":2163384,
			"target":34962
		},
		{
			"buffer":0,
			"byteLength":48900,
			"byteOffset":2212284,
			"target":34962
		},
		{
			"buffer":0,
			"byteLength":32600,
			"byteOffset":2261184,
			"target":34962
		},
		{
			"buffer":0,
			"byteLength":30240,
			"byteOffset":2293784,
			"target":34963
		}
	],
	"samplers":[
		{
			"magFilter":9729,
			"minFilter":9987
		}
	],
	"buffers":[
		{
			"byteLength":2324024,
			"uri":"data:application/octet-stream;base64,"
		}
	]
}
