{
	"asset":{
		"generator":"Khronos glTF Blender I/O v3.6.28",
		"version":"2.0"
	},
	"scene":0,
	"scenes":[
		{
			"name":"Scene",
			"nodes":[
				0
			]
		}
	],
	"nodes":[
		{
			"mesh":0,
			"name":"Cube.059",
			"scale":[
				1.1667158603668213,
				1.1667158603668213,
				1.1667158603668213
			]
		}
	],
	"materials":[
		{
			"doubleSided":true,
			"name":"Material.002",
			"pbrMetallicRoughness":{
				"baseColorFactor":[
					0.1878194659948349,
					0.1878194659948349,
					0.1878194659948349,
					1
				],
				"metallicFactor":0.8714286088943481,
				"roughnessFactor":0.4499550461769104
			}
		},
		{
			"doubleSided":true,
			"name":"Material.004",
			"pbrMetallicRoughness":{
				"baseColorFactor":[
					0.7156866192817688,
					0.7156866192817688,
					0.7156866192817688,
					1
				],
				"metallicFactor":0.9182389974594116,
				"roughnessFactor":0.31761008501052856
			}
		},
		{
			"doubleSided":true,
			"name":"Material.013",
			"pbrMetallicRoughness":{
				"baseColorFactor":[
					0.031893983483314514,
					0.031893983483314514,
					0.031893983483314514,
					1
				],
				"metallicFactor":0,
				"roughnessFactor":0.5
			}
		}
	],
	"meshes":[
		{
			"name":"Cube.112",
			"primitives":[
				{
					"attributes":{
						"POSITION":0,
						"NORMAL":1,
						"TEXCOORD_0":2
					},
					"indices":3,
					"material":0
				},
				{
					"attributes":{
						"POSITION":4,
						"NORMAL":5,
						"TEXCOORD_0":6
					},
					"indices":7,
					"material":1
				},
				{
					"attributes":{
						"POSITION":8,
						"NORMAL":9,
						"TEXCOORD_0":10
					},
					"indices":11,
					"material":2
				}
			]
		}
	],
	"accessors":[
		{
			"bufferView":0,
			"componentType":5126,
			"count":6542,
			"max":[
				0.13814865052700043,
				0.13970531523227692,
				0.05164060741662979
			],
			"min":[
				-0.13913030922412872,
				-0.13757365942001343,
				-0.15133608877658844
			],
			"type":"VEC3"
		},
		{
			"bufferView":1,
			"componentType":5126,
			"count":6542,
			"type":"VEC3"
		},
		{
			"bufferView":2,
			"componentType":5126,
			"count":6542,
			"type":"VEC2"
		},
		{
			"bufferView":3,
			"componentType":5123,
			"count":29376,
			"type":"SCALAR"
		},
		{
			"bufferView":4,
			"componentType":5126,
			"count":32,
			"max":[
				0.13929133117198944,
				0.13176459074020386,
				-0.011191194877028465
			],
			"min":[
				-0.1328205019235611,
				-0.14034724235534668,
				-0.01119121816009283
			],
			"type":"VEC3"
		},
		{
			"bufferView":5,
			"componentType":5126,
			"count":32,
			"type":"VEC3"
		},
		{
			"bufferView":6,
			"componentType":5126,
			"count":32,
			"type":"VEC2"
		},
		{
			"bufferView":7,
			"componentType":5123,
			"count":90,
			"type":"SCALAR"
		},
		{
			"bufferView":8,
			"componentType":5126,
			"count":622,
			"max":[
				0.21708457171916962,
				0.21864119172096252,
				0.05164060741662979
			],
			"min":[
				-0.21806620061397552,
				-0.21650950610637665,
				-0.15133608877658844
			],
			"type":"VEC3"
		},
		{
			"bufferView":9,
			"componentType":5126,
			"count":622,
			"type":"VEC3"
		},
		{
			"bufferView":10,
			"componentType":5126,
			"count":622,
			"type":"VEC2"
		},
		{
			"bufferView":11,
			"componentType":5123,
			"count":2880,
			"type":"SCALAR"
		}
	],
	"bufferViews":[
		{
			"buffer":0,
			"byteLength":78504,
			"byteOffset":0,
			"target":34962
		},
		{
			"buffer":0,
			"byteLength":78504,
			"byteOffset":78504,
			"target":34962
		},
		{
			"buffer":0,
			"byteLength":52336,
			"byteOffset":157008,
			"target":34962
		},
		{
			"buffer":0,
			"byteLength":58752,
			"byteOffset":209344,
			"target":34963
		},
		{
			"buffer":0,
			"byteLength":384,
			"byteOffset":268096,
			"target":34962
		},
		{
			"buffer":0,
			"byteLength":384,
			"byteOffset":268480,
			"target":34962
		},
		{
			"buffer":0,
			"byteLength":256,
			"byteOffset":268864,
			"target":34962
		},
		{
			"buffer":0,
			"byteLength":180,
			"byteOffset":269120,
			"target":34963
		},
		{
			"buffer":0,
			"byteLength":7464,
			"byteOffset":269300,
			"target":34962
		},
		{
			"buffer":0,
			"byteLength":7464,
			"byteOffset":276764,
			"target":34962
		},
		{
			"buffer":0,
			"byteLength":4976,
			"byteOffset":284228,
			"target":34962
		},
		{
			"buffer":0,
			"byteLength":5760,
			"byteOffset":289204,
			"target":34963
		}
	],
	"buffers":[
		{
			"byteLength":294964,
			"uri":"data:application/octet-stream;base64,"
		}
	]
}
